<svg id="Layer_1" data-name="Layer 1" xmlns="http://www.w3.org/2000/svg" xmlns:xlink="http://www.w3.org/1999/xlink" viewBox="0 0 240.39 226.41"><defs><style>.cls-1,.cls-7{fill:#fff;}.cls-2{fill:#ea8e10;}.cls-3{fill:#231f20;}.cls-4{fill:#f5a909;}.cls-5{fill:#12100b;}.cls-5,.cls-8{stroke:#4d4947;}.cls-31,.cls-5{stroke-width:6px;}.cls-6{fill:#d0d0d0;stroke-width:4px;}.cls-6,.cls-7{stroke:#231f20;}.cls-7{stroke-width:2px;}.cls-31,.cls-8{fill:none;}.cls-8{stroke-width:5px;}.cls-9{clip-path:url(#clip-path);}.cls-10{fill:#f7a954;}.cls-11{fill:#45433d;}.cls-12{fill:#45453e;}.cls-13{fill:#f7a24b;}.cls-14{fill:#404f58;}.cls-15{fill:#f8d8bd;}.cls-16{fill:#f7d9be;}.cls-17{fill:#8d5a14;}.cls-18{fill:#949970;}.cls-19{fill:#050502;}.cls-20{fill:#7b3520;}.cls-21{fill:#1d1510;}.cls-22{fill:#20210a;}.cls-23{fill:#de6f1d;}.cls-24{fill:#fad9bd;}.cls-25{fill:#dc6e1d;}.cls-26{fill:#f3f5f3;}.cls-27{fill:#287532;}.cls-28{fill:#0c0c09;}.cls-29{fill:#e07422;}.cls-30{fill:#bf9881;}.cls-31{stroke:#13110c;}.cls-32{fill:#e30613;stroke:#dd1215;stroke-width:0.23px;}</style><clipPath id="clip-path"><path class="cls-1" d="M198.12,91.79A1.25,1.25,0,0,1,196.88,93h-70.7a1.26,1.26,0,0,1-1.26-1.25V57.37a1.26,1.26,0,0,1,1.26-1.25h70.7a1.25,1.25,0,0,1,1.24,1.25Z"/></clipPath></defs><title>Mesa de trabajo 1</title><path class="cls-2" d="M168,16.67a344,344,0,0,0-49.38-3.21,355.33,355.33,0,0,0-46.23,2.76V40.46H36.65v93.13H203.79V40.91H168V16.67Z"/><path class="cls-3" d="M168,47.87V16.77c18.29,3.17,30.14,8.17,30.14,13.81a5.72,5.72,0,0,1,5.63,5.8V47.87Z"/><path class="cls-3" d="M72.41,47.37V16.27c-18.29,3.17-30.14,8.17-30.14,13.81a5.72,5.72,0,0,0-5.63,5.8V47.37Z"/><path class="cls-4" d="M213.1,132.78c-4.23-4.22-12.78-4.51-19.15-8.11-25.55-14.45-43.26-19-73.16-19h-1.14c-29.9,0-47.61,4.58-73.16,19-6.37,3.6-14.92,3.89-19.15,8.11-12,12-4.39,38-4.39,38A1.24,1.24,0,0,0,24.19,172H216.25a1.24,1.24,0,0,0,1.24-1.25S225.14,144.82,213.1,132.78Z"/><path class="cls-4" d="M143.33,14.19c0-2.86-9.3-9.33-23.24-9.33s-23,6.47-23,9.33"/><path class="cls-3" d="M216,172H24.43c-.73,0-1.31.83-1.31,1.86l3.52,8.5c0,1.08.56,2,1.25,2h13.4v26.13A1.48,1.48,0,0,0,42.69,212H81.94a1.48,1.48,0,0,0,1.39-1.55V194.13h72.94v16.33a1.48,1.48,0,0,0,1.4,1.55h39.84a1.48,1.48,0,0,0,1.4-1.55V184.33h13.63c.7,0,1.27-.89,1.27-2l3.52-8.5C217.32,172.83,216.73,172,216,172Z"/><path class="cls-5" d="M162.68,155.44a7.06,7.06,0,0,1-7.06,7.06H84.82a7.06,7.06,0,0,1-7.06-7.06V128.88a7.06,7.06,0,0,1,7.06-7.07h70.79a7.06,7.06,0,0,1,7.06,7.07v26.56Z"/><path class="cls-6" d="M213.37,147.78a15.25,15.25,0,1,1-15.26-15.25A15.25,15.25,0,0,1,213.37,147.78Z"/><path class="cls-7" d="M207.56,147.78a9.44,9.44,0,1,1-9.44-9.44A9.44,9.44,0,0,1,207.56,147.78Z"/><path class="cls-6" d="M57.57,147.78a15.25,15.25,0,1,1-15.26-15.25A15.25,15.25,0,0,1,57.57,147.78Z"/><path class="cls-7" d="M51.76,147.78a9.44,9.44,0,1,1-9.44-9.44A9.44,9.44,0,0,1,51.76,147.78Z"/><line class="cls-8" x1="79.83" y1="138.49" x2="160.61" y2="138.49"/><line class="cls-8" x1="79.83" y1="130.11" x2="160.61" y2="130.11"/><line class="cls-8" x1="79.83" y1="146.87" x2="160.61" y2="146.87"/><line class="cls-8" x1="79.83" y1="155.25" x2="160.61" y2="155.25"/><path class="cls-1" d="M115.52,91.79A1.25,1.25,0,0,1,114.27,93H43.56a1.25,1.25,0,0,1-1.25-1.25V57.37a1.25,1.25,0,0,1,1.25-1.25h70.71a1.25,1.25,0,0,1,1.24,1.25Z"/><path class="cls-1" d="M198.12,91.79A1.25,1.25,0,0,1,196.88,93h-70.7a1.26,1.26,0,0,1-1.26-1.25V57.37a1.26,1.26,0,0,1,1.26-1.25h70.7a1.25,1.25,0,0,1,1.24,1.25Z"/><g class="cls-9"><path class="cls-10" d="M155.82,50.27A20.82,20.82,0,0,1,159,47.38a17.31,17.31,0,0,1,5-2.18,12.87,12.87,0,0,1,7.25.4,21.38,21.38,0,0,1,10.16,7.5,32.23,32.23,0,0,1,3.45,6.08,21.85,21.85,0,0,1-.32,17.51,38.87,38.87,0,0,1-7.76,11.24c-.18.18-.4.33-.6.49l-.1-.78c.63-.62,1.26-1.22,1.87-1.85,3-3.06,4.29-6.86,4.6-11.06h.34l-.66,4.57a21.71,21.71,0,0,0,2.1-4.17,21,21,0,0,0,1-9.16,19.8,19.8,0,0,0-4.12-10.75c-.69-.87-1.4-1.72-2.1-2.58l.26-.08-.05-.08-.2.16-.84-.58h.24c.67-.13.22-.42,0-.56a33.24,33.24,0,0,0-4.2-3.43c-4.4-2.62-9-3.07-13.7-.67a36,36,0,0,0-3.22,2.08l-.2.35-1.19,1Z"/><path class="cls-10" d="M154.47,79.95c-2.83-1.5-5.08-3.57-5.8-6.78a8.84,8.84,0,0,1,.25-3.94c.47-1.85,1.27-3.62,1.84-5.45a4.26,4.26,0,0,0,.05-2c-.06-.31-.51-.65-.86-.78-.86-.3-1.77-.45-2.63-.74a10.85,10.85,0,0,1-1.53-.84l1.11-.41c0,.05,0,.1,0,.15s.27.36.44.42c3.95,1.41,7.94.6,11.94.31a67,67,0,0,1,6.91-.25,8.2,8.2,0,0,1,4.63,1.57,15.54,15.54,0,0,1,5.4,6.7,12,12,0,0,1,.66,5.66l-1-4.34-.29-.72c-.19-.45-.35-.92-.59-1.36A14.54,14.54,0,0,0,170.17,62l-1-.37L167.47,61l-1.09-.31-1.22,0-1.91.06-1,.09-8.9.46h-.58c-1.27-.11-1.24-.12-1.13,1.11a4.5,4.5,0,0,1-.07,1.57c-.39,1.43-.82,2.84-1.29,4.24a7.82,7.82,0,0,0,.1,6.33,10.1,10.1,0,0,0,5.08,4.76Z"/><path class="cls-11" d="M154.47,79.95l1-.66a9.52,9.52,0,0,0,1-.48,3,3,0,0,1,3.08-.34,15.86,15.86,0,0,1,1.83,1.3l1.31-2.64.76-.41a9.63,9.63,0,0,1,4.55-.25,16,16,0,0,0,1.62.27l.4.41.08.73c2.88-.68,4.4.39,5,3,.52,2.21.66,4.5,1,6.76l.1.78c.31,2.24.58,4.49,1,6.72a24.51,24.51,0,0,0,.79,2.85c.35,1.19.19,1.46-1.16,2l-.26-.21c1.17-.56,1-1.37.66-2.43-1.14-3.22-1.38-6.63-1.79-10a59.77,59.77,0,0,0-1-6.42c-.5-2.14-1.78-3.08-4.14-2.3-.66.22-1.29.55-2,.87l1.21-2.06a12.1,12.1,0,0,0-5.22-.14,3.07,3.07,0,0,0-1.44,1.05,25.52,25.52,0,0,0-1.55,2.06,4.9,4.9,0,0,1-.58-.52,2.92,2.92,0,0,0-4.24-.24c-1.63,1.45-3.23,2.93-4.76,4.48-2.66,2.68-5.36,5.3-8.83,7a1.67,1.67,0,0,0-.78,1.05c-.28,1.48-.45,3-.67,4.49l-.33.21c.22-1.67.38-3.34.68-5a2.17,2.17,0,0,1,.87-1.14,103.16,103.16,0,0,0,11.28-9.8A7.56,7.56,0,0,0,154.47,79.95Z"/><path class="cls-12" d="M176.45,99.75l.26.21c-1.7,1.32-3.39,2.65-5.11,4-.59.45-1.25.82-1.87,1.22v-1.06a3.36,3.36,0,0,0-2.38-4.14l-.59-.4A37.85,37.85,0,0,1,169.88,96c1.37-1.24,1.46-1.14.87-3a16.87,16.87,0,0,0-2.32-7.27,32.25,32.25,0,0,0-5.84,6.78l-.27.87c-.22.22-.53.4-.65.67-.67,1.38-1.29,2.78-1.92,4.18l-.72-.84-1-1.79,1.26,1.1c1.88-4.61,5.05-8.28,8.71-11.64l-1.1-1.26c4.1,2.61,4.36,6.94,4.93,11.15l1.23.11c-2.39.72-3.84,2.42-5.18,4.48,1.83.75,2.38,2.21,2.48,4Z"/><path class="cls-13" d="M155.82,50.27l.22.6-.63,1-.62.36.66.07-3.77,3.31.17.23c.6-.25,1.19-.5,1.79-.74,3.76-1.47,7.53-2.91,11.68-2.58a27.75,27.75,0,0,1,3.06.58,22,22,0,0,0-7.87.2c-4.07,1-8.1,2.16-11.48,4.85a9.41,9.41,0,0,1-1.93.92h0A35.85,35.85,0,0,0,150,56.6c1.53-1.56,3-3.23,4.43-4.84C154.88,51.25,155.35,50.76,155.82,50.27Z"/><path class="cls-12" d="M140.93,96.81l.34-.21q0,1.29,0,2.58l-.73-.2v-.4l0-.37.18-.42v-.59Z"/><path class="cls-11" d="M140.54,99l.73.2,0,.2-.39.81-.15,0Z"/><path class="cls-11" d="M140.74,97.21v0Z"/><path class="cls-11" d="M140.56,98.21l0,.37Z"/><path class="cls-13" d="M146.89,59.2c0-.05,0-.1,0-.15l.19,0h0Z"/><path class="cls-14" d="M152.85,104.35a22.4,22.4,0,0,1,2.83-1.39,19.36,19.36,0,0,1,3.17-.63c.59-.09.86.23.78.82-.11.82-.2,1.64-.32,2.45A4.6,4.6,0,0,0,160,109c-.09-.5-.21-1-.26-1.51a2.54,2.54,0,0,1,0-1.26,1.76,1.76,0,0,1,1-.83c.22-.07.72.28.86.56a32.47,32.47,0,0,1,1.65,3.47c.43,1.1-.76,3-1.93,3.22a.76.76,0,0,1-.62-.31c-.3-.53-.5-1.11-.79-1.65-.11-.2-.32-.49-.5-.49a7.54,7.54,0,0,0-2.3.09,16.59,16.59,0,0,0-2.53,1.19,1,1,0,0,1,.1-1.61c.83-.64,1.73-1.18,2.56-1.84a5.38,5.38,0,0,0-3.24,1.84l-.27-.22c.54-.77,1.07-1.55,1.63-2.3.35-.47.74-.9,1.11-1.35l.39-.21.25-.09-.06-.07-.22.14-.4.2L154,108l-.16-.05a14.41,14.41,0,0,1,.85-1.5A13,13,0,0,1,156,105c.43-.44.92-.82,1.38-1.23l-.16-.3-4.86,2.22.52-1.31Z"/><path class="cls-15" d="M158,95.62l1,1.79c-.35,1.45-.86,2.76-2.61,3l-2.2.42h-3.11l3.35-7.55,1.76.59.22.17,1.57,1.6Zm-4.12,1.89-.21-.12a6.82,6.82,0,0,0-.74.92c-.07.13.08.39.13.59.19-.09.48-.14.54-.28A6.38,6.38,0,0,0,153.9,97.51Z"/><path class="cls-16" d="M167.36,99.95a3.36,3.36,0,0,1,2.38,4.14l-6.28,3.13L162.17,105Z"/><path class="cls-12" d="M156.22,93.84l-1.76-.59-.59-.19.95-3.85c-1.56,1-2.9,2-4.29,2.83a26,26,0,0,1-2.89,1.49c-.57.26-.9.63-.74,1.22.45,1.62-.13,3.13-.42,4.67l-.75-.22c-.21-.22-.38-.58-.63-.64a3.76,3.76,0,0,0-2.94.66l-.14-.15a3.18,3.18,0,0,1,3.87-.69,7.63,7.63,0,0,0,.1-5.32c.51,0,1,.24,1.3.07,2.37-1.56,4.7-3.17,7-4.79A2.08,2.08,0,0,0,155,86.1c-.07-.48-.2-1-.31-1.46l2.94-1.6.16.27a22.81,22.81,0,0,0-2,1.4,1.88,1.88,0,0,0-.45,1c-.06.31.1.66.07,1-.16,2-.35,4-.53,6Z"/><path class="cls-16" d="M142.15,99.22a3.76,3.76,0,0,1,2.94-.66c.24.05.42.42.63.64a8.19,8.19,0,0,0-.38,1.33c-.23,2-1,3.61-3.31,4.29l-.69-4.63Z"/><path class="cls-17" d="M147.64,107.32l-1-1.41,1.6-1.18h0l.68-.33.39-.07,1,.12.55,1.58.19,0-.27-1.72,2.49-1-.43,1.11h0c-1,.23-1.08.65-.44,1.76l2.53-1.31c-.82,2.16-2.79,3.49-3.68,2.57.06,1.34-1.13,1-1.8,1.42s-1.05.08-1.39-.45v-.2l.39,0c1.16.12,1.87-.31,2-1.22a1.36,1.36,0,0,0-1.08-1.64C148.28,104.9,147.44,105.91,147.64,107.32Z"/><path class="cls-14" d="M144,109.92l.42-1.8.34,0c.25.36.53.7.74,1.07.37.66.72,1.33,1,2,.17.37.5.95.36,1.14-.37.49-.66,1.32-1.59,1h0l-.21-.2-1-.6h0l-.41-.2h0l-.2-.41h0l-.64-1,.87-1,.7.86.24.37,1,1.17.26-.26-1.13-1-.24-.37Z"/><path class="cls-14" d="M147.7,108.33l.92,1.55c-.37.56-.87.61-1.29.14a34.4,34.4,0,0,1-2.7-3.35c-.19-.28,0-1,.28-1.39.46-.63,1-.45,1.3.25.44.91,1,1.77,1.45,2.66A.49.49,0,0,0,147.7,108.33Z"/><path class="cls-14" d="M146.65,104.73a1.52,1.52,0,0,0-2.23.32,1.89,1.89,0,0,0-.39,1.34c.26,1.41.21,1.75-.93,2.93-.42-.73-.84-1.44-1.23-2.15a.67.67,0,0,1,0-.46,5,5,0,0,1,4.34-3C146.82,103.79,147.05,104,146.65,104.73Z"/><path class="cls-18" d="M149.34,104.35l-.39.07-.67-2.88,4.19-.3c0,1.12-.24,2-1.45,2.29A9.19,9.19,0,0,0,149.34,104.35Z"/><path class="cls-19" d="M147.64,107.32c-.2-1.41.64-2.42,1.76-2.09a1.36,1.36,0,0,1,1.08,1.64c-.14.91-.85,1.34-2,1.22Z"/><path class="cls-18" d="M154.23,100.8l2.2-.42,1.54-.08.1.22a43,43,0,0,1-5.31,2.34C152.54,101.61,153.38,101.2,154.23,100.8Z"/><path class="cls-14" d="M145.3,113.3c-.24.19-.54.59-.73.54a3.57,3.57,0,0,1-2.49-1.75c-.26-.51-.21-.89.44-1l1,.82h0l.2.41h0l.41.2h0l.8.79h.4Z"/><path class="cls-18" d="M148.27,104.74l-.78-.1v-3.41c.3.38.58.58.61.81.1.9.12,1.8.16,2.71Z"/><path class="cls-18" d="M147.68,100.38l3-.76C150.21,101,150,101,147.68,100.38Z"/><path class="cls-20" d="M154.65,102.78l2.24-1.18c-.54.81-1.45.87-2.25,1.17Z"/><path class="cls-12" d="M142.15,99.22l-.8,1-.42,0,.39-.81.69-.32Z"/><path class="cls-21" d="M143.51,111.92l-1-.82.35-.18Z"/><path class="cls-21" d="M144.43,110.78l-.7-.86H144l.55.78Z"/><path class="cls-20" d="M153.47,103.17l.47-.18.06.14-.36.21Z"/><path class="cls-19" d="M147.7,108.33a.49.49,0,0,1-.05-.15l.43,0v.2Z"/><path class="cls-20" d="M154.64,102.76l-.22.14.23-.13Z"/><polygon class="cls-14" points="153.75 108.47 153.74 108.41 153.78 108.41 153.75 108.47"/><path class="cls-22" d="M150.24,109.4a.6.6,0,0,1-.16-.09Z"/><path class="cls-17" d="M153.47,103.17l.17.18Z"/><path class="cls-23" d="M146.89,59.2l.21-.17a9.41,9.41,0,0,0,1.93-.92c3.38-2.69,7.42-3.8,11.48-4.85a22,22,0,0,1,7.87-.2h0a20,20,0,0,1,6,3.2c.5.41,1,.78,1.54,1.18h0l.4.4h0l.41.2h0l.8,1h0l.2.2h0l.6.8h0l.2.41h0l.41.4h0l.2.41h0l.21.21h0l.4.6h0l.21.41h0l.4.81h0c.47,1.33,1,2.65,1.38,4a25.32,25.32,0,0,1,.83,7.54c-.31,4.2-1.56,8-4.6,11.06-.62.62-1.25,1.23-1.87,1.85-.31-2.26-.45-4.55-1-6.76-.61-2.62-2.14-3.69-5-3l-.08-.72c.18-.45.34-.91.56-1.34a12,12,0,0,1,1.34-2.34c1.25-1.45,2.63-2.8,4-4.19l1,4.34A12,12,0,0,0,176.2,68a15.54,15.54,0,0,0-5.4-6.7,8.2,8.2,0,0,0-4.63-1.57,67,67,0,0,0-6.91.25c-4,.29-8,1.1-11.94-.31C147.15,59.56,147,59.35,146.89,59.2Z"/><path class="cls-23" d="M168.37,53.06a27.75,27.75,0,0,0-3.06-.58c-4.15-.34-7.92,1.1-11.68,2.58-.6.24-1.2.49-1.79.74l-.17-.23,3.77-3.31h0l1.6-1h0l.6-.2h0c1-.4,2-.78,3-1.22a16,16,0,0,1,13.64,0c.8.37,1.63.66,2.45,1h0l1.55,1.21.84.58h0c.7.86,1.41,1.71,2.1,2.58A19.8,19.8,0,0,1,185.32,66a21,21,0,0,1-1,9.16,21.71,21.71,0,0,1-2.1,4.17l.66-4.57a57.4,57.4,0,0,0-.64-6.64,29.93,29.93,0,0,0-1.91-4.91h0l-.4-.81h0L179.7,62h0l-.4-.6h0l-.21-.21h0l-.2-.41h0l-.41-.4h0l-.2-.41h0l-.6-.8h0l-.2-.2h0l-.8-1h0l-.41-.2h0l-.4-.4h0a19.28,19.28,0,0,0-1.95-2,9.77,9.77,0,0,0-5.62-2.38Z"/><path class="cls-23" d="M155.41,51.83l.63-1,1.19-1,.2-.35a36,36,0,0,1,3.22-2.08c4.68-2.39,9.3-1.95,13.7.67a33.24,33.24,0,0,1,4.2,3.43c.17.15.63.43,0,.56l-1.79-1.2h0a16.4,16.4,0,0,0-8.68-3c-3.17-.22-6,.89-8.84,2.19a15.23,15.23,0,0,0-1.57,1h0l-.6.2h0l-1.58.62Z"/><path class="cls-13" d="M180.29,63.19a29.93,29.93,0,0,1,1.91,4.91,57.39,57.39,0,0,1,.64,6.64h-.34a25.32,25.32,0,0,0-.83-7.54C181.29,65.84,180.76,64.53,180.29,63.19Z"/><path class="cls-13" d="M176.71,50.87l1.79,1.2h-.24Z"/><path class="cls-13" d="M157.43,49.48l-.2.35Z"/><path class="cls-23" d="M179.1,52.66l.2-.16.05.08-.26.08Z"/><path class="cls-24" d="M163.26,60.71l1.91-.06c-.46,1-.95,2-1.35,3-.06.16.26.46.41.7a3.32,3.32,0,0,0,3.93.64l.62-.22h0A2.88,2.88,0,0,0,170.17,62a14.53,14.53,0,0,1,4.78,5.17c.23.43.39.9.59,1.36-2.37,4-6,6.14-10.55,6.84l-.54-.21,1.24-.4-3.24-.37a2.89,2.89,0,0,0,.7.53c.13.1.18.3.27.46a12.37,12.37,0,0,1-10.22-8.66,2,2,0,0,1,2-2.65,10.2,10.2,0,0,0-.45,1.08c-.22.74-.12,1,.49,1.41v0l.21.48a3.34,3.34,0,0,0,2.75.23l1.44-1.07c.13.19.39.4.36.56-.15.8-.36,1.58-.58,2.37a6.53,6.53,0,0,1-.4.89l.27.12a17.24,17.24,0,0,0,1-2.19A3.51,3.51,0,0,0,157,63.23c-1.66-.59-2.93.1-4.24,1.19l.57-3.16,8.9-.46-.7,2.31h.1Zm4.33,11.44,0,0,.89-1.12c-1,.1-2,.23-3,.27s-2-.08-3,0a17.15,17.15,0,0,0-2.23.43l-.05.37c.88.53,1.29,1.71,2.6,1.64a20.28,20.28,0,0,0,2.87-.4,8.19,8.19,0,0,0,1.81-1Z"/><path class="cls-25" d="M162.63,77.13l-1.31,2.64a15.86,15.86,0,0,0-1.83-1.3,3,3,0,0,0-3.08.34,9.52,9.52,0,0,1-1,.48,10.1,10.1,0,0,1-5.08-4.77,7.82,7.82,0,0,1-.1-6.33c.47-1.4.91-2.82,1.29-4.24a4.5,4.5,0,0,0,.07-1.57c-.12-1.22-.14-1.22,1.13-1.11-2.13,6.13,3,13.38,9.94,14.8Z"/><path class="cls-21" d="M162.63,77.13l.05-1.06c-7-1.42-12.07-8.67-9.94-14.8h.58l-.57,3.16c1.31-1.09,2.59-1.77,4.24-1.19v.51q-2.37.84-1.74,2.85c-.62-.46-.71-.68-.49-1.41a10.2,10.2,0,0,1,.45-1.08,2,2,0,0,0-2,2.65,12.37,12.37,0,0,0,10.22,8.66H165c4.54-.71,8.18-2.8,10.55-6.84l.29.72c-1.33,1.39-2.71,2.74-4,4.19a12,12,0,0,0-1.34,2.34c-.22.43-.38.89-.56,1.34l-.4-.41,1.05-2.47A15.13,15.13,0,0,1,164.11,76c-.56,0-.8.21-.72.76Z"/><path class="cls-26" d="M168.16,65a3.32,3.32,0,0,1-3.93-.64c-.24-1.79.74-2.88,2.16-3.7l1.09.31c-1.28,2-1.06,2.88.92,3.76Z"/><path class="cls-27" d="M168.39,64.76c-2-.87-2.19-1.78-.92-3.76l1.71.66c-.38.22-.9.34-1.12.67-.63,1,.15,1.4.81,1.76l-.09.73h0Z"/><path class="cls-28" d="M168.79,64.82l.09-.73c-.66-.37-1.45-.81-.81-1.76.22-.33.73-.45,1.12-.67l1,.37A2.88,2.88,0,0,1,168.79,64.82Z"/><path class="cls-22" d="M166.39,60.69c-1.42.83-2.4,1.91-2.16,3.7-.15-.24-.47-.55-.41-.7.4-1,.89-2,1.35-3Z"/><path class="cls-21" d="M163.26,60.71l-1.63,2.41h-.1l.7-2.31Z"/><path d="M142,99.07l-.69.32,0-.2q0-1.29,0-2.58c.21-1.5.38-3,.67-4.49a1.67,1.67,0,0,1,.78-1.05c3.47-1.66,6.17-4.28,8.83-7,1.54-1.54,3.13-3,4.76-4.48a2.92,2.92,0,0,1,4.24.24,4.9,4.9,0,0,0,.58.52,25.52,25.52,0,0,1,1.55-2.06,3.07,3.07,0,0,1,1.44-1.05,12.1,12.1,0,0,1,5.22.14l-1.21,2.06c.74-.32,1.36-.65,2-.87,2.36-.77,3.64.17,4.14,2.3a59.77,59.77,0,0,1,1,6.42c.41,3.37.64,6.77,1.79,10,.38,1.06.51,1.87-.66,2.43l-6.1,3.83c-.1-1.82-.65-3.28-2.48-4,1.34-2.06,2.79-3.77,5.18-4.48L171.82,95c-.57-4.21-.83-8.54-4.93-11.15l1.1,1.26c-3.66,3.36-6.83,7-8.71,11.64L158,95.62h0a1.9,1.9,0,0,0-1.57-1.6l-.22-.17-1.32-1.07c.18-2.06.37-4.06.53-6,0-.32-.13-.67-.07-1a1.88,1.88,0,0,1,.45-1,22.81,22.81,0,0,1,2-1.4l-.16-.27-2.94,1.6c.11.51.24,1,.31,1.46a2.08,2.08,0,0,1-.71,2.23c-2.33,1.61-4.66,3.23-7,4.79-.27.18-.79,0-1.3-.07a7.63,7.63,0,0,1-.1,5.32A3.18,3.18,0,0,0,142,99.07Zm25.56-19.18.34-.23-.07-.07-.26.31,0,0Z"/><path class="cls-15" d="M163.39,76.71c-.08-.55.16-.74.72-.76a15.13,15.13,0,0,0,6.51-1.68l-1.05,2.47a16,16,0,0,1-1.62-.27A9.63,9.63,0,0,0,163.39,76.71Z"/><path class="cls-29" d="M170.75,93l-1.53.8a5.37,5.37,0,0,0-1.43.34c-1.55.86-3.07,1.79-4.8,2.82,0-.85,0-1.41,0-2-.09-.84-.26-1.66-.39-2.49a32.25,32.25,0,0,1,5.84-6.78A16.87,16.87,0,0,1,170.75,93Z"/><path class="cls-10" d="M162.6,92.53c.13.83.3,1.66.39,2.49.06.55,0,1.1,0,2,1.74-1,3.25-2,4.8-2.82a5.37,5.37,0,0,1,1.43-.34l-6.31,3.76-.35-.2-.24-4Z"/><path class="cls-23" d="M155.44,52.26l-.66-.07.62-.36,0,0,0,.38Z"/><path class="cls-28" d="M156.43,105.94l.4-.2,0,0-.39.21Z"/><path class="cls-28" d="M156.82,105.74l.22-.14.06.07-.25.09Z"/><path class="cls-21" d="M153.9,97.51a6.38,6.38,0,0,1-.27,1.11c-.06.14-.35.19-.54.28-.05-.2-.21-.46-.13-.59a6.82,6.82,0,0,1,.74-.92Z"/><path class="cls-12" d="M156.44,94a1.9,1.9,0,0,1,1.57,1.6Z"/><path class="cls-21" d="M144.78,111.06l1.13,1-.26.26-1-1.17Z"/><path class="cls-21" d="M144.9,113.3l-.8-.79,1,.6Z"/><path class="cls-21" d="M144.67,111.15l-.24-.37.1-.08.24.37Z"/><path class="cls-21" d="M143.71,112.32l-.2-.41Z"/><path class="cls-28" d="M144.9,113.3l.2-.19.21.2Z"/><path class="cls-21" d="M144.11,112.51l-.41-.2Z"/><path class="cls-13" d="M168.36,53.06A9.77,9.77,0,0,1,174,55.43a19.28,19.28,0,0,1,1.95,2c-.51-.39-1-.77-1.54-1.18A20,20,0,0,0,168.36,53.06Z"/><path class="cls-13" d="M176.71,58l.8,1Z"/><path class="cls-13" d="M177.71,59.22l.6.8Z"/><path class="cls-13" d="M179.3,61.4l.4.6Z"/><path class="cls-13" d="M179.89,62.4l.4.81Z"/><path class="cls-13" d="M178.5,60.41l.41.4Z"/><path class="cls-13" d="M175.92,57.43l.4.4Z"/><path class="cls-13" d="M178.9,60.81l.2.41Z"/><path class="cls-13" d="M178.3,60l.2.41Z"/><path class="cls-13" d="M179.7,62l.21.41Z"/><path class="cls-13" d="M176.31,57.83l.41.2Z"/><path class="cls-13" d="M177.51,59l.2.2Z"/><path class="cls-13" d="M179.1,61.21l.21.21Z"/><path class="cls-13" d="M157.62,51.07a15.23,15.23,0,0,1,1.57-1c2.8-1.3,5.68-2.42,8.84-2.19a16.4,16.4,0,0,1,8.68,3c-.82-.33-1.65-.63-2.45-1a16,16,0,0,0-13.64,0C159.64,50.29,158.63,50.67,157.62,51.07Z"/><path class="cls-13" d="M155.44,52.27l0-.38,1.58-.62Z"/><path class="cls-13" d="M157,51.27l.6-.2Z"/><path class="cls-20" d="M162.8,73.73c-1.31.07-1.72-1.11-2.6-1.64l.05-.37a17.15,17.15,0,0,1,2.23-.43c1-.07,2,.06,3,0s2-.17,3-.27l-.89,1.12c-.25-.13-.5-.38-.74-.36-1.27.07-2.55.2-3.82.32-.4,0-.8.12-1.33.2Z"/><path class="cls-26" d="M162.8,73.73l-1.12-1.41c.53-.08.93-.16,1.33-.2,1.27-.12,2.54-.25,3.82-.32.24,0,.49.24.74.36l0,0a.33.33,0,0,1-.12.14,8.19,8.19,0,0,1-1.81,1A20.28,20.28,0,0,1,162.8,73.73Z"/><path class="cls-26" d="M155.26,66.6q-.64-2,1.74-2.85l.28.05c-1,1.34-.83,2.3.68,3.19a1.31,1.31,0,0,1,.26.28,3.34,3.34,0,0,1-2.75-.23l-.21-.48Z"/><path class="cls-27" d="M158.22,67.26A1.31,1.31,0,0,0,158,67c-1.5-.89-1.71-1.85-.68-3.19l1.19.36-.55,1.53,1.45.49a.69.69,0,0,0,.19,0l.09,0Z"/><path class="cls-30" d="M158.47,64.15l-1.19-.36-.28-.05q0-.26,0-.51a3.51,3.51,0,0,1,3.29,4.72,17.24,17.24,0,0,1-1,2.19L159,70a6.53,6.53,0,0,0,.4-.89c.22-.78.43-1.57.58-2.37,0-.16-.23-.37-.36-.56l-.09,0C159.85,65.15,159.24,64.61,158.47,64.15Z"/><path class="cls-11" d="M165,75.4h-1.58c-.09-.16-.14-.36-.27-.46a2.89,2.89,0,0,1-.7-.53l3.24.37-1.24.4Z"/><path class="cls-28" d="M168.39,64.76l.39.05-.62.22Z"/><path class="cls-21" d="M155.25,66.56l.21.48Z"/><path class="cls-20" d="M167.47,72.29a.33.33,0,0,0,.12-.14Z"/><path class="cls-11" d="M167.57,79.9l.26-.31.07.07-.34.23Z"/><path class="cls-11" d="M167.56,79.89v0l0,0Z"/><path class="cls-28" d="M158.47,64.15c.78.45,1.38,1,1.09,2a.69.69,0,0,1-.19,0l-1.45-.49Z"/></g><path class="cls-31" d="M185.61,93.13c0-9-9.75-15.58-18.49-15.58s-18.48,6.67-18.48,15.58"/><path class="cls-3" d="M28.25,86.56A1.24,1.24,0,0,1,27,87.8H10.2A1.25,1.25,0,0,1,9,86.56v-24a1.25,1.25,0,0,1,1.25-1.24H27a1.23,1.23,0,0,1,1.24,1.24Z"/><path class="cls-31" d="M18.6,87.8c0,5.76,8,10.42,17.89,10.42"/><path class="cls-3" d="M212.14,86.56a1.25,1.25,0,0,0,1.24,1.24H230.2a1.25,1.25,0,0,0,1.24-1.24v-24a1.25,1.25,0,0,0-1.24-1.24H213.38a1.25,1.25,0,0,0-1.24,1.24Z"/><path class="cls-31" d="M221.79,87.8c0,5.76-8,10.42-17.88,10.42"/><path class="cls-32" d="M173.45,34.68A10.6,10.6,0,1,0,184,24.09,10.59,10.59,0,0,0,173.45,34.68Z"/><path class="cls-32" d="M44.56,34.68a10.6,10.6,0,1,0,10.58-10.6A10.59,10.59,0,0,0,44.56,34.68Z"/><path d="M74.52,24.13a24.48,24.48,0,0,1,4-.3,7.82,7.82,0,0,1,4.64,1.06,2.92,2.92,0,0,1,1.4,2.57c0,1.41-1.08,2.64-2.86,3.2v0c1.6.35,3.48,1.49,3.48,3.65a3.69,3.69,0,0,1-1.43,2.92c-1.18.93-3.08,1.36-5.84,1.36a29.39,29.39,0,0,1-3.39-.17V24.13Zm2.18,6h2c2.31,0,3.66-1,3.66-2.44,0-1.71-1.5-2.38-3.71-2.38a10.76,10.76,0,0,0-1.93.13V30.1Zm0,7a13.49,13.49,0,0,0,1.83.09c2.26,0,4.34-.71,4.34-2.83s-2-2.81-4.36-2.81H76.71v5.56Z"/><path d="M90.3,23.94v8.63c0,3.27,1.68,4.65,3.94,4.65,2.51,0,4.11-1.43,4.11-4.65V23.94h2.21v8.5c0,4.48-2.73,6.31-6.4,6.31-3.46,0-6.07-1.71-6.07-6.23V23.94Z"/><path d="M104.05,36.22a8.68,8.68,0,0,0,3.91,1c2.23,0,3.54-1,3.54-2.49s-.9-2.14-3.19-2.9c-2.76-.84-4.46-2.08-4.46-4.13,0-2.27,2.18-4,5.47-4a8.69,8.69,0,0,1,3.74.71l-.6,1.54a7.58,7.58,0,0,0-3.21-.69c-2.31,0-3.19,1.19-3.19,2.18,0,1.36,1,2,3.36,2.81,2.86,1,4.31,2.14,4.31,4.28s-1.93,4.19-5.92,4.19a9.84,9.84,0,0,1-4.31-.93Z"/><path d="M121.89,32v1.41h-6.19V32Z"/><path d="M124.55,24.13a24.47,24.47,0,0,1,4-.3,7.81,7.81,0,0,1,4.64,1.06,2.92,2.92,0,0,1,1.4,2.57c0,1.41-1.08,2.64-2.86,3.2v0c1.6.35,3.49,1.49,3.49,3.65a3.69,3.69,0,0,1-1.43,2.92c-1.18.93-3.09,1.36-5.85,1.36a29.35,29.35,0,0,1-3.39-.17V24.13Zm2.18,6h2c2.31,0,3.66-1,3.66-2.44,0-1.71-1.51-2.38-3.71-2.38a10.77,10.77,0,0,0-1.93.13V30.1Zm0,7a13.51,13.51,0,0,0,1.83.09c2.26,0,4.34-.71,4.34-2.83s-2-2.81-4.36-2.81h-1.81v5.56Z"/><path d="M150,38a12.36,12.36,0,0,1-4.46.69c-4.77,0-8.35-2.6-8.35-7.37,0-4.56,3.59-7.65,8.83-7.65a10.3,10.3,0,0,1,4,.65l-.53,1.53a9,9,0,0,0-3.41-.6c-4,0-6.6,2.18-6.6,6,0,3.57,2.38,5.86,6.5,5.86a10,10,0,0,0,3.56-.6Z"/><path d="M152.7,38.51V23.94h2.38l5.42,7.37a40.2,40.2,0,0,1,3,4.73l.05,0a55.79,55.79,0,0,1-.25-6v-6.1h2.06V38.51h-2.21l-5.37-7.39a44.38,44.38,0,0,1-3.16-4.87l-.08,0c.13,1.84.18,3.59.18,6v6.23Z"/></svg>