<?xml version="1.0" encoding="utf-8"?>
<!-- Generator: Adobe Illustrator 21.1.0, SVG Export Plug-In . SVG Version: 6.00 Build 0)  -->
<svg version="1.1" id="Capa_1" xmlns="http://www.w3.org/2000/svg" xmlns:xlink="http://www.w3.org/1999/xlink" x="0px" y="0px"
	 viewBox="0 0 234.3 49" style="enable-background:new 0 0 234.3 49;" xml:space="preserve">
<style type="text/css">
	.st0{stroke:#000000;stroke-width:3;stroke-miterlimit:10;}
	.st1{fill:#E5251F;stroke:#E52820;stroke-miterlimit:10;}
</style>
<path class="st0" d="M40.4,5.1c-0.7,0.2-1.2,0.4-1.5,0.7c-0.3,0.2-0.5,0.5-0.7,0.8s-0.3,0.8-0.4,1.5s-0.1,1.7-0.1,3.1v26.5
	c0,1.4,0,2.4,0.1,3s0.2,1.1,0.4,1.5s0.4,0.7,0.7,0.9s0.8,0.5,1.6,0.7v1.5h-9.8v-1.5c0.9-0.3,1.5-0.6,1.9-1c0.3-0.4,0.6-0.9,0.7-1.6
	s0.2-1.9,0.2-3.6V26c0-3.1,0-6.2,0.1-9.4s0.2-5.3,0.2-6.5h-0.5L24,40.5h-2.7L12.7,9.6h-0.4c0.1,1.2,0.2,3.5,0.2,6.8
	c0.1,3.3,0.1,6.6,0.1,10.1v11.2c0,1.4,0,2.4,0.1,3s0.2,1.1,0.4,1.5c0.2,0.4,0.4,0.7,0.7,0.9s0.8,0.5,1.6,0.7v1.5H6.8v-1.5
	c1-0.3,1.6-0.7,1.9-1.1c0.3-0.4,0.5-1,0.6-1.7s0.2-1.9,0.2-3.4V11.3c0-1.4,0-2.4-0.1-3.1C9.3,7.6,9.2,7.1,9,6.7
	C8.8,6.3,8.6,6.1,8.3,5.8C8,5.6,7.5,5.3,6.8,5.1V3.6h8.4l8.2,29.8l9.1-29.8h7.9C40.4,3.6,40.4,5.1,40.4,5.1z"/>
<path class="st0" d="M58.6,45.9c-1.9,0-3.6-0.4-5.1-1.2s-2.9-2.1-4-3.8s-2-3.9-2.6-6.5S46,28.6,46,24.9c0-4.6,0.5-8.5,1.6-11.7
	c1.1-3.3,2.6-5.8,4.6-7.5s4.3-2.6,6.9-2.6c2.8,0,5.1,0.8,7,2.4s3.3,4,4.3,7.1s1.4,6.9,1.4,11.4c0,4.8-0.5,8.8-1.6,12.1
	c-1.1,3.3-2.6,5.8-4.6,7.4C63.6,45.1,61.3,45.9,58.6,45.9z M50.9,24c0,6.3,0.7,11,2.1,14.3s3.4,4.9,6.1,4.9c1.7,0,3.2-0.7,4.3-2.1
	c1.2-1.4,2.1-3.5,2.7-6.2S67,29,67,25.3c0-4.5-0.3-8.1-1-11.1c-0.7-2.9-1.6-5.1-2.9-6.4c-1.2-1.3-2.6-2-4.2-2
	c-1.4,0-2.6,0.4-3.6,1.3s-1.8,2.1-2.5,3.7s-1.2,3.5-1.5,5.7S50.9,21.3,50.9,24z"/>
<path class="st0" d="M85.1,3.6v1.5c-0.7,0.2-1.3,0.4-1.6,0.6c-0.4,0.2-0.7,0.6-0.8,1c-0.2,0.5-0.3,1.1-0.3,1.8
	c0,0.7,0.1,1.4,0.2,2.3c0.1,0.8,0.3,1.7,0.5,2.7l5.5,25l6.7-25.2c0.1-0.4,0.2-0.8,0.3-1.2c0.1-0.4,0.2-0.8,0.2-1.3
	c0.1-0.4,0.1-0.8,0.1-1.1c0-0.3,0-0.6,0-0.9c0-1.2-0.2-2.1-0.6-2.7S94.1,5.2,93.1,5V3.5h9.9v1.6c-0.6,0.2-1.2,0.5-1.5,0.9
	c-0.4,0.4-0.8,1-1.2,1.9c-0.4,0.9-0.8,2.2-1.4,4.1l-9.7,33.9h-3.1l-7.9-34.2c-0.4-1.9-0.8-3.2-1.1-4c-0.3-0.8-0.7-1.4-1-1.8
	c-0.4-0.4-0.9-0.7-1.5-0.9V3.5L85.1,3.6L85.1,3.6z"/>
<path class="st0" d="M113,37.8c0,1.4,0,2.4,0.1,3s0.2,1.1,0.4,1.5c0.2,0.4,0.4,0.7,0.7,0.9c0.3,0.2,0.8,0.5,1.6,0.7v1.5h-9.9v-1.5
	c1-0.3,1.6-0.7,1.9-1.1c0.3-0.4,0.5-1,0.6-1.7s0.2-1.9,0.2-3.4V11.3c0-1.4,0-2.4-0.1-3.1c-0.1-0.6-0.2-1.1-0.4-1.5s-0.4-0.6-0.7-0.9
	c-0.3-0.2-0.8-0.5-1.5-0.7V3.6h9.9v1.5c-0.7,0.2-1.2,0.4-1.5,0.7c-0.3,0.2-0.5,0.5-0.7,0.8s-0.3,0.8-0.4,1.5s-0.1,1.7-0.1,3.1v26.6
	H113z"/>
<path class="st0" d="M143.3,3.6v9.3H141c-0.2-1-0.5-1.9-0.7-2.6c-0.3-0.8-0.5-1.4-0.8-1.9s-0.6-0.9-0.9-1.2
	c-0.3-0.3-0.7-0.5-1.1-0.6c-0.4-0.1-1-0.2-1.6-0.2h-7.4v16.1h5c0.7,0,1.2-0.1,1.6-0.4c0.4-0.3,0.7-0.7,1-1.3s0.5-1.6,0.7-2.9h2.2
	v11.8h-2.2c-0.2-1.2-0.5-2.1-0.7-2.8c-0.3-0.6-0.6-1.1-1-1.3c-0.4-0.3-0.9-0.4-1.7-0.4h-5v17.7h7.3c0.8,0,1.4-0.1,1.9-0.3
	s0.9-0.5,1.2-0.9s0.6-1,0.9-1.6c0.3-0.7,0.5-1.4,0.7-2.1c0.2-0.7,0.4-1.8,0.7-3.2h2.3L143,45.6h-21.7v-1.5c1-0.3,1.6-0.7,1.9-1.1
	c0.3-0.4,0.5-1,0.6-1.7s0.2-1.9,0.2-3.4V11.3c0-1.4,0-2.4-0.1-3.1c-0.1-0.6-0.2-1.1-0.4-1.5s-0.4-0.6-0.7-0.9
	c-0.3-0.2-0.8-0.5-1.5-0.7V3.6H143.3z"/>
<path class="st0" d="M156.2,42.6h6.2c0.7,0,1.2-0.1,1.7-0.2c0.5-0.1,0.8-0.3,1.2-0.5c0.3-0.2,0.6-0.5,0.9-0.9
	c0.3-0.4,0.5-0.9,0.7-1.5s0.5-1.4,0.7-2.3c0.2-0.9,0.5-2.3,0.8-4.2h2.4l-0.5,12.3h-21.1v-1.5c1-0.3,1.6-0.7,1.9-1.1
	c0.3-0.4,0.5-1,0.6-1.7s0.2-1.9,0.2-3.4V11.3c0-1.4,0-2.4-0.1-3.1c-0.1-0.6-0.2-1.1-0.4-1.5s-0.4-0.6-0.7-0.9
	c-0.3-0.2-0.8-0.5-1.5-0.7V3.6h9.9v1.5c-0.7,0.2-1.2,0.5-1.5,0.7s-0.5,0.5-0.7,0.8s-0.3,0.8-0.4,1.5s-0.1,1.7-0.1,3.2v31.3H156.2z"
	/>
<path class="st0" d="M228.3,4.5V13H226c-0.4-1.8-0.9-3.2-1.4-4.2c-0.6-1.1-1.3-1.8-2-2.3c-0.8-0.4-1.7-0.7-2.8-0.7
	c-1.6,0-3,0.7-4.3,2.1s-2.3,3.5-3,6.3s-1.1,6.2-1.1,10.2s0.3,7.4,0.9,10.2c0.6,2.8,1.5,5,2.6,6.4c1.2,1.4,2.6,2.2,4.3,2.2
	c1.3,0,2.3-0.2,3.1-0.7s1.5-1.2,2.1-2.3s1.1-2.6,1.6-4.6h2.3v8.8c-1.5,0.5-3,0.9-4.5,1.1s-3.2,0.4-5.1,0.4c-4,0-7-1.8-9-5.3
	s-3.1-8.8-3.1-15.7c0-4.4,0.5-8.2,1.6-11.5s2.6-5.8,4.7-7.6s4.5-2.7,7.3-2.7c1.4,0,2.7,0.1,3.9,0.3C225.3,3.6,226.7,4,228.3,4.5z"/>
<g>
	<path class="st1" d="M187.2,0.4c-8.5,0-15.4,6.5-15.4,14.6c0,2.5,0.7,4.9,1.9,7l13.4,23.5l13.2-22.8c1.5-2.2,2.3-4.9,2.3-7.7
		C202.6,6.9,195.7,0.4,187.2,0.4z M187.1,23.3c-4.3,0-7.8-3.5-7.8-7.7c0-4.3,3.5-7.7,7.8-7.7s7.8,3.5,7.8,7.7S191.4,23.3,187.1,23.3
		z"/>
</g>
</svg>
