<?xml version="1.0" encoding="utf-8"?>
<!-- Generator: Adobe Illustrator 21.0.2, SVG Export Plug-In . SVG Version: 6.00 Build 0)  -->
<svg version="1.1" id="Capa_1" xmlns="http://www.w3.org/2000/svg" xmlns:xlink="http://www.w3.org/1999/xlink" x="0px" y="0px"
	 viewBox="0 0 261.7 81.7" style="enable-background:new 0 0 261.7 81.7;" xml:space="preserve">
<style type="text/css">
	.st0{stroke:#000000;stroke-width:3;stroke-miterlimit:10;}
	.st1{fill:#E5251F;stroke:#E52820;stroke-miterlimit:10;}
</style>
<g>
	<path class="st0" d="M54.1,23c-0.7,0.2-1.2,0.4-1.5,0.7c-0.3,0.2-0.5,0.5-0.7,0.8s-0.3,0.8-0.4,1.5s-0.1,1.7-0.1,3.1v26.5
		c0,1.4,0,2.4,0.1,3c0.1,0.6,0.2,1.1,0.4,1.5c0.2,0.4,0.4,0.7,0.7,0.9c0.3,0.2,0.8,0.5,1.6,0.7v1.5h-9.8v-1.5c0.9-0.3,1.5-0.6,1.9-1
		c0.3-0.4,0.6-0.9,0.7-1.6s0.2-1.9,0.2-3.6V43.9c0-3.1,0-6.2,0.1-9.4c0.1-3.2,0.2-5.3,0.2-6.5H47l-9.3,30.4H35l-8.6-30.9H26
		c0.1,1.2,0.2,3.5,0.2,6.8c0.1,3.3,0.1,6.6,0.1,10.1v11.2c0,1.4,0,2.4,0.1,3c0.1,0.6,0.2,1.1,0.4,1.5c0.2,0.4,0.4,0.7,0.7,0.9
		s0.8,0.5,1.6,0.7v1.5h-8.6v-1.5c1-0.3,1.6-0.7,1.9-1.1c0.3-0.4,0.5-1,0.6-1.7c0.1-0.7,0.2-1.9,0.2-3.4V29.2c0-1.4,0-2.4-0.1-3.1
		c-0.1-0.6-0.2-1.1-0.4-1.5c-0.2-0.4-0.4-0.6-0.7-0.9c-0.3-0.2-0.8-0.5-1.5-0.7v-1.5h8.4l8.2,29.8l9.1-29.8h7.9V23z"/>
	<path class="st0" d="M72.3,63.8c-1.9,0-3.6-0.4-5.1-1.2s-2.9-2.1-4-3.8c-1.1-1.7-2-3.9-2.6-6.5s-0.9-5.8-0.9-9.5
		c0-4.6,0.5-8.5,1.6-11.7c1.1-3.3,2.6-5.8,4.6-7.5c2-1.7,4.3-2.6,6.9-2.6c2.8,0,5.1,0.8,7,2.4s3.3,4,4.3,7.1c1,3.1,1.4,6.9,1.4,11.4
		c0,4.8-0.5,8.8-1.6,12.1c-1.1,3.3-2.6,5.8-4.6,7.4C77.3,63,75,63.8,72.3,63.8z M64.6,41.9c0,6.3,0.7,11,2.1,14.3s3.4,4.9,6.1,4.9
		c1.7,0,3.2-0.7,4.3-2.1c1.2-1.4,2.1-3.5,2.7-6.2c0.6-2.7,0.9-5.9,0.9-9.6c0-4.5-0.3-8.1-1-11.1c-0.7-2.9-1.6-5.1-2.9-6.4
		c-1.2-1.3-2.6-2-4.2-2c-1.4,0-2.6,0.4-3.6,1.3c-1,0.9-1.8,2.1-2.5,3.7c-0.7,1.6-1.2,3.5-1.5,5.7S64.6,39.2,64.6,41.9z"/>
	<path class="st0" d="M98.8,21.5V23c-0.7,0.2-1.3,0.4-1.6,0.6c-0.4,0.2-0.7,0.6-0.8,1c-0.2,0.5-0.3,1.1-0.3,1.8
		c0,0.7,0.1,1.4,0.2,2.3c0.1,0.8,0.3,1.7,0.5,2.7l5.5,25l6.7-25.2c0.1-0.4,0.2-0.8,0.3-1.2c0.1-0.4,0.2-0.8,0.2-1.3
		c0.1-0.4,0.1-0.8,0.1-1.1c0-0.3,0-0.6,0-0.9c0-1.2-0.2-2.1-0.6-2.7s-1.2-0.9-2.2-1.1v-1.5h9.9V23c-0.6,0.2-1.2,0.5-1.5,0.9
		c-0.4,0.4-0.8,1-1.2,1.9c-0.4,0.9-0.8,2.2-1.4,4.1l-9.7,33.9h-3.1l-7.9-34.2c-0.4-1.9-0.8-3.2-1.1-4c-0.3-0.8-0.7-1.4-1-1.8
		c-0.4-0.4-0.9-0.7-1.5-0.9v-1.5H98.8z"/>
	<path class="st0" d="M126.7,55.7c0,1.4,0,2.4,0.1,3c0.1,0.6,0.2,1.1,0.4,1.5c0.2,0.4,0.4,0.7,0.7,0.9c0.3,0.2,0.8,0.5,1.6,0.7v1.5
		h-9.9v-1.5c1-0.3,1.6-0.7,1.9-1.1c0.3-0.4,0.5-1,0.6-1.7c0.1-0.7,0.2-1.9,0.2-3.4V29.2c0-1.4,0-2.4-0.1-3.1
		c-0.1-0.6-0.2-1.1-0.4-1.5s-0.4-0.6-0.7-0.9c-0.3-0.2-0.8-0.5-1.5-0.7v-1.5h9.9V23c-0.7,0.2-1.2,0.4-1.5,0.7
		c-0.3,0.2-0.5,0.5-0.7,0.8c-0.2,0.3-0.3,0.8-0.4,1.5s-0.1,1.7-0.1,3.1V55.7z"/>
	<path class="st0" d="M157,21.5v9.3h-2.3c-0.2-1-0.5-1.9-0.7-2.6c-0.3-0.8-0.5-1.4-0.8-1.9c-0.3-0.5-0.6-0.9-0.9-1.2
		c-0.3-0.3-0.7-0.5-1.1-0.6c-0.4-0.1-1-0.2-1.6-0.2h-7.4v16.1h5c0.7,0,1.2-0.1,1.6-0.4c0.4-0.3,0.7-0.7,1-1.3
		c0.3-0.6,0.5-1.6,0.7-2.9h2.2v11.8h-2.2c-0.2-1.2-0.5-2.1-0.7-2.8c-0.3-0.6-0.6-1.1-1-1.3c-0.4-0.3-0.9-0.4-1.7-0.4h-5v17.7h7.3
		c0.8,0,1.4-0.1,1.9-0.3c0.5-0.2,0.9-0.5,1.2-0.9c0.3-0.4,0.6-1,0.9-1.6c0.3-0.7,0.5-1.4,0.7-2.1c0.2-0.7,0.4-1.8,0.7-3.2h2.3
		l-0.4,10.8h-21.7v-1.5c1-0.3,1.6-0.7,1.9-1.1c0.3-0.4,0.5-1,0.6-1.7c0.1-0.7,0.2-1.9,0.2-3.4V29.2c0-1.4,0-2.4-0.1-3.1
		c-0.1-0.6-0.2-1.1-0.4-1.5s-0.4-0.6-0.7-0.9c-0.3-0.2-0.8-0.5-1.5-0.7v-1.5H157z"/>
	<path class="st0" d="M169.9,60.5h6.2c0.7,0,1.2-0.1,1.7-0.2c0.5-0.1,0.8-0.3,1.2-0.5c0.3-0.2,0.6-0.5,0.9-0.9
		c0.3-0.4,0.5-0.9,0.7-1.5c0.2-0.6,0.5-1.4,0.7-2.3c0.2-0.9,0.5-2.3,0.8-4.2h2.4l-0.5,12.3h-21.1v-1.5c1-0.3,1.6-0.7,1.9-1.1
		c0.3-0.4,0.5-1,0.6-1.7c0.1-0.7,0.2-1.9,0.2-3.4V29.2c0-1.4,0-2.4-0.1-3.1c-0.1-0.6-0.2-1.1-0.4-1.5s-0.4-0.6-0.7-0.9
		c-0.3-0.2-0.8-0.5-1.5-0.7v-1.5h9.9V23c-0.7,0.2-1.2,0.5-1.5,0.7s-0.5,0.5-0.7,0.8c-0.2,0.3-0.3,0.8-0.4,1.5s-0.1,1.7-0.1,3.2V60.5
		z"/>
	<path class="st0" d="M242,22.4v8.5h-2.3c-0.4-1.8-0.9-3.2-1.4-4.2c-0.6-1.1-1.3-1.8-2-2.3c-0.8-0.4-1.7-0.7-2.8-0.7
		c-1.6,0-3,0.7-4.3,2.1c-1.3,1.4-2.3,3.5-3,6.3c-0.7,2.8-1.1,6.2-1.1,10.2c0,4,0.3,7.4,0.9,10.2c0.6,2.8,1.5,5,2.6,6.4
		c1.2,1.4,2.6,2.2,4.3,2.2c1.3,0,2.3-0.2,3.1-0.7c0.8-0.5,1.5-1.2,2.1-2.3s1.1-2.6,1.6-4.6h2.3v8.8c-1.5,0.5-3,0.9-4.5,1.1
		s-3.2,0.4-5.1,0.4c-4,0-7-1.8-9-5.3c-2-3.5-3.1-8.8-3.1-15.7c0-4.4,0.5-8.2,1.6-11.5c1.1-3.3,2.6-5.8,4.7-7.6s4.5-2.7,7.3-2.7
		c1.4,0,2.7,0.1,3.9,0.3C239,21.5,240.4,21.9,242,22.4z"/>
</g>
<g>
	<path class="st1" d="M200.9,18.3c-8.5,0-15.4,6.5-15.4,14.6c0,2.5,0.7,4.9,1.9,7l13.4,23.5L214,40.6c1.5-2.2,2.3-4.9,2.3-7.7
		C216.3,24.8,209.4,18.3,200.9,18.3z M200.8,41.2c-4.3,0-7.8-3.5-7.8-7.7c0-4.3,3.5-7.7,7.8-7.7c4.3,0,7.8,3.5,7.8,7.7
		C208.6,37.7,205.1,41.2,200.8,41.2z"/>
</g>
</svg>
